# xmcd
#
# Track frame offsets:
#	150
#	19860
#	47625
#
# Disc length: 867 seconds
#
# Revision: 1
# Processed by: cddbd v1.5.2PL0 Copyright (c) Steve Scherf et al.
# Submitted via: dBpowerAMP V4.0
#
DISCID=1c036103
DTITLE=Jennifer Lopez - If You My Had My Love [CDS)
DYEAR=1999
DGENRE=R&B
TTITLE0=If You My Had My Love
TTITLE1=If You My Had My Love (Metro Club Mix)
TTITLE2=If You My Had My Love (Pablo Flores Remix Edit)
EXTD=Tim Behan
EXTT0=
EXTT1=
EXTT2=
PLAYORDER=
